<?xml version="1.0" standalone="no"?>
<!DOCTYPE svg PUBLIC "-//W3C//DTD SVG 20010904//EN"
 "http://www.w3.org/TR/2001/REC-SVG-20010904/DTD/svg10.dtd">
<svg version="1.0" xmlns="http://www.w3.org/2000/svg"
 width="110.000000pt" height="110.000000pt" viewBox="0 0 110.000000 110.000000"
 preserveAspectRatio="xMidYMid meet">
<metadata>
Created by potrace 1.14, written by Peter Selinger 2001-2017
</metadata>
<g transform="translate(0.000000,110.000000) scale(0.100000,-0.100000)"
fill="#000000" stroke="none">
<path d="M530 987 c-3 -3 -26 -8 -51 -11 -168 -22 -289 -111 -289 -211 0 -44
-11 -60 -45 -66 -35 -7 -65 -66 -65 -129 0 -45 -4 -61 -21 -76 -19 -17 -21
-27 -16 -88 4 -58 9 -74 28 -90 13 -12 33 -38 44 -59 18 -37 74 -76 103 -71 6
1 17 2 23 3 8 1 7 7 -2 18 -10 11 -10 14 -1 9 7 -4 12 -1 12 8 0 27 -2 31 -13
28 -6 -2 -4 5 3 15 22 28 24 29 17 11 -3 -10 -2 -20 4 -23 5 -4 6 -11 3 -17
-5 -7 -2 -8 5 -4 7 5 20 2 29 -6 9 -8 28 -14 42 -13 30 2 63 -13 55 -24 -7
-12 53 -56 100 -72 27 -9 91 -13 195 -14 184 0 227 13 280 87 82 112 101 179
96 340 -3 112 -6 130 -32 183 -16 33 -31 62 -35 65 -3 3 -8 13 -12 23 -3 9
-12 17 -20 17 -7 0 -27 26 -43 57 -24 46 -40 62 -79 82 -43 23 -64 26 -179 29
-72 2 -133 2 -136 -1z"/>
</g>
</svg>
